<svg width="319" height="390" viewBox="0 0 319 390" fill="none" xmlns="http://www.w3.org/2000/svg">
<g clip-path="url(#clip0)">
<path d="M268.077 128.676C255.413 137.671 254.992 115.603 254.432 101.97C253.872 88.3379 252.862 67.5093 242.618 66.27C234.455 65.2905 236.846 78.0735 227.283 78.2134C217.719 78.3533 205.055 49.819 200.273 40.6839C195.491 31.5489 185.218 25.5522 176.635 38.9949C168.472 51.7879 166.361 67.3094 151.596 68.6487C142.313 69.4882 134.15 60.0733 130.358 50.5186C126.567 40.9638 117.694 46.5807 109.261 60.783C100.828 74.9852 100.748 101.591 87.8735 106.038C80.5609 108.567 76.1594 88.0381 66.2058 89.0275C60.4238 89.6072 57.7729 100.281 57.2427 106.068C57.9029 129.295 65.3255 153.172 79.1304 170.293L93.2454 177.669L129.058 204.384L182.767 212.75L236.476 205.784C274.019 187.833 283.563 153.192 285.023 133.163C282.852 126.277 280.732 119.681 268.077 128.676Z" fill="#B15929"/>
<path d="M182.757 214.019L182.577 213.989L128.558 205.574L92.5856 178.728L78.3306 171.272L78.1705 171.072C64.7858 154.492 56.7029 130.804 56.0027 106.108V106.038L56.0127 105.968C56.6029 99.5315 59.3839 88.4676 66.0963 87.798C71.9983 87.2083 75.9597 92.9252 79.451 97.9724C82.2319 101.98 84.8529 105.768 87.4738 104.869C94.7764 102.34 97.7174 91.6658 100.839 80.352C102.819 73.176 104.86 65.75 108.191 60.1531C111.792 54.1064 118.795 44.0219 125.437 44.5616C127.278 44.7115 129.819 45.7809 131.529 50.0786C135.071 58.9837 142.823 68.2087 151.496 67.4291C161.5 66.5196 165.341 58.524 169.783 49.269C171.523 45.651 173.314 41.913 175.595 38.345C180.197 31.1289 185.008 29.7797 188.249 29.9196C193.241 30.1295 198.153 33.9474 201.384 40.124C202.044 41.3733 202.844 42.9925 203.765 44.8514C208.957 55.2857 219.74 76.9839 227.203 76.9839C227.223 76.9839 227.243 76.9839 227.263 76.9839C231.405 76.9239 232.895 74.0755 234.476 71.0471C236.086 67.9588 237.917 64.4607 242.769 65.0404C254.223 66.4196 255.133 88.6475 255.683 101.93L255.743 103.359C256.123 112.724 256.683 126.877 261.445 129.205C262.906 129.925 264.896 129.405 267.357 127.666C272.909 123.728 276.921 122.369 280.002 123.399C283.623 124.608 284.953 128.776 286.234 132.803L286.304 133.033L286.284 133.273C285.144 148.885 278.061 187.314 237.027 206.933L236.846 207.023L236.646 207.053L182.757 214.019ZM129.559 203.215L182.787 211.5L236.126 204.584C275.61 185.604 282.613 148.625 283.773 133.323C282.653 129.815 281.572 126.547 279.211 125.757C277.021 125.028 273.519 126.347 268.808 129.695C265.547 132.014 262.696 132.603 260.345 131.444C254.253 128.456 253.692 114.593 253.252 103.449L253.192 102.02C252.712 90.3566 251.812 68.6384 242.478 67.5091C239.497 67.1493 238.397 68.9583 236.706 72.1865C235.036 75.3947 232.945 79.3826 227.313 79.4625C227.283 79.4625 227.253 79.4625 227.223 79.4625C218.9 79.4625 209.597 62.172 201.534 45.9508C200.624 44.1118 199.823 42.5127 199.173 41.2734C196.402 35.9763 192.171 32.5781 188.149 32.4082C184.468 32.2383 180.847 34.767 177.706 39.6843C175.505 43.1324 173.744 46.8004 172.044 50.3484C167.472 59.8732 163.15 68.8783 151.726 69.9177C141.733 70.8272 133.21 61.0726 129.209 51.0081C128.218 48.5194 126.888 47.1902 125.247 47.0602C121.506 46.7804 115.794 52.2774 110.342 61.4424C107.181 66.7495 105.18 74.0055 103.249 81.0317C99.9582 92.9951 96.8371 104.289 88.2941 107.247C83.8825 108.767 80.7314 104.229 77.4002 99.4116C74.1491 94.7142 70.7779 89.8568 66.3463 90.3066C61.6647 90.7763 59.0638 100.241 58.5136 106.148C59.2138 130.195 67.0266 153.202 79.9612 169.343L94.0061 176.709L129.559 203.215Z" fill="#893510"/>
<path d="M285.223 125.156C284.603 108.036 275.78 107.506 272.479 111.524C269.178 115.542 264.296 117.261 265.006 92.7241C265.726 68.1875 262.915 62.6805 257.804 52.726C252.692 42.7714 242.728 37.0445 236.376 45.8797C230.024 54.7149 222.921 48.7382 218.68 40.6526C214.438 32.557 206.215 15.2565 196.252 7.04095C186.288 -1.17456 181.177 0.0647607 174.824 6.04149C168.472 12.0182 171.383 17.5252 161.229 34.0662C151.076 50.6071 142.223 39.6331 139.932 31.7774C137.641 23.9217 130.919 16.066 121.255 22.6124C111.592 29.1589 97.3369 56.6638 93.0754 71.7256C88.8139 86.7874 78.8204 72.2153 77.1798 70.0865C75.5392 67.9576 64.0752 63.0503 60.9441 74.1942C58.1531 84.1488 56.9427 95.0428 57.2628 106.097C57.793 100.31 60.4339 89.6358 66.226 89.0561C76.1695 88.0667 80.571 108.595 87.8936 106.067C100.758 101.619 100.838 75.0038 109.281 60.8116C117.724 46.6193 126.587 40.9924 130.379 50.5472C134.17 60.1019 142.333 69.5168 151.616 68.6773C166.381 67.338 168.502 51.8065 176.655 39.0235C185.228 25.5808 195.502 31.5775 200.293 40.7125C205.085 49.8475 217.739 78.3819 227.303 78.242C236.866 78.1021 234.475 65.3091 242.638 66.2986C252.882 67.5379 253.892 88.3665 254.452 101.999C255.013 115.632 255.433 137.7 268.097 128.704C280.752 119.709 282.862 126.306 285.053 133.202C285.263 130.124 285.303 127.415 285.223 125.156Z" fill="#E85B14"/>
<path d="M285.044 134.421C284.503 134.421 284.023 134.071 283.853 133.552C282.713 129.964 281.632 126.565 279.212 125.756C277.021 125.026 273.52 126.346 268.808 129.694C265.547 132.012 262.696 132.602 260.345 131.443C254.253 128.454 253.693 114.592 253.242 103.448L253.182 102.019C252.702 90.3552 251.802 68.6371 242.469 67.5077C239.488 67.1479 238.387 68.9569 236.697 72.1852C235.026 75.3934 232.935 79.3812 227.303 79.4612C227.273 79.4612 227.243 79.4612 227.213 79.4612C218.89 79.4612 209.587 62.1706 201.524 45.9495C200.614 44.1105 199.814 42.5114 199.163 41.2721C196.392 35.975 192.161 32.5768 188.139 32.4069C184.428 32.237 180.837 34.7656 177.696 39.6829C175.495 43.131 173.734 46.799 172.034 50.3471C167.462 59.8719 163.141 68.877 151.717 69.9164C141.723 70.8259 133.2 61.0712 129.199 51.0067C128.208 48.5181 126.878 47.1888 125.237 47.0589C121.496 46.779 115.784 52.276 110.332 61.441C107.171 66.7481 105.17 74.0042 103.239 81.0303C99.9483 92.9938 96.8272 104.288 88.2842 107.246C83.8727 108.775 80.7215 104.228 77.3904 99.4103C74.1392 94.7129 70.768 89.8555 66.3365 90.3053C61.6348 90.775 59.0339 100.32 58.4937 106.217C58.4337 106.876 57.8535 107.366 57.2132 107.356C56.553 107.336 56.0228 106.806 56.0028 106.147C55.6827 94.7228 56.9332 83.8588 59.7341 73.8742C61.2747 68.3672 64.6859 66.6082 67.2768 66.1085C72.0085 65.189 76.9502 67.7576 78.1706 69.3367L78.5208 69.7965C82.4922 75.1136 85.6533 77.6022 87.9141 77.1824C89.9348 76.8126 91.1852 73.8243 91.8755 71.3956C96.0569 56.6137 110.262 28.569 120.556 21.5928C124.427 18.9742 128.148 18.2846 131.639 19.5339C135.851 21.0531 139.402 25.5007 141.143 31.4374C142.473 35.9949 145.855 40.8723 149.756 41.392C153.097 41.8417 156.698 39.0833 160.18 33.4164C165.301 25.0809 167.002 19.7238 168.372 15.4262C169.693 11.2784 170.643 8.28009 173.984 5.14181C180.477 -0.964856 186.329 -2.76387 197.073 6.08129C206.206 13.6072 213.818 28.4291 218.37 37.2842C218.89 38.3037 219.37 39.2432 219.811 40.0827C222.622 45.4498 226.153 48.7879 229.244 49.0078C231.365 49.1577 233.435 47.8585 235.376 45.1599C238.517 40.8023 242.159 40.1127 244.669 40.2926C249.921 40.6824 255.383 45.2299 258.944 52.1661C264.146 62.3006 267.007 67.8875 266.277 92.7739C265.757 110.554 268.318 112.423 268.828 112.623C269.248 112.773 270.188 112.373 271.529 110.744C273.35 108.525 276.251 107.676 278.911 108.575C281.552 109.465 286.054 112.803 286.494 125.136C286.584 127.605 286.524 130.423 286.314 133.282C286.274 133.881 285.804 134.361 285.214 134.431C285.134 134.411 285.084 134.421 285.044 134.421ZM241.738 64.9591C242.068 64.9591 242.409 64.9791 242.769 65.0191C254.223 66.3983 255.133 88.6262 255.683 101.909L255.743 103.338C256.123 112.703 256.684 126.855 261.445 129.184C262.906 129.904 264.897 129.384 267.357 127.645C272.909 123.707 276.921 122.348 280.002 123.377C281.823 123.987 283.063 125.336 284.003 127.045C284.003 126.406 283.993 125.786 283.963 125.196C283.563 113.962 279.712 111.464 278.081 110.914C276.411 110.354 274.59 110.894 273.44 112.303C271.479 114.682 269.628 115.571 267.928 114.932C265.707 114.102 263.226 110.814 263.756 92.674C264.466 68.4372 261.705 63.0502 256.694 53.2855C253.583 47.2188 248.781 43.0911 244.459 42.7712C241.758 42.5713 239.368 43.8606 237.387 46.5991C234.906 50.0573 232.085 51.6964 229.044 51.4865C225.022 51.2066 220.841 47.4587 217.57 41.2221C217.13 40.3726 216.639 39.4331 216.119 38.4036C211.658 29.7184 204.185 15.1863 195.452 7.99025C185.979 0.184515 181.527 1.43383 175.675 6.94082C172.814 9.63935 171.984 12.2379 170.733 16.1658C169.393 20.3635 167.562 26.1103 162.29 34.7056C158.199 41.372 153.857 44.4403 149.406 43.8506C144.194 43.151 140.283 37.4541 138.722 32.1171C137.552 28.1192 134.851 23.3319 130.779 21.8627C128.088 20.8932 125.117 21.4929 121.946 23.6317C112.393 30.0982 98.3678 57.5532 94.2663 72.0452C92.9859 76.5828 90.9952 79.1214 88.3542 79.6111C83.9327 80.4307 79.4711 75.2335 76.5001 71.2557L76.1799 70.8259C75.5197 69.9764 71.4883 67.8076 67.747 68.5272C64.986 69.0569 63.1053 71.0758 62.145 74.5139C60.3443 80.9304 59.2039 87.7167 58.7238 94.7928C60.3343 91.1048 62.7152 88.1264 66.0964 87.7866C71.9985 87.197 75.9599 92.9138 79.4511 97.9611C82.2321 101.969 84.853 105.757 87.4739 104.857C94.7765 102.329 97.7175 91.6545 100.839 80.3407C102.819 73.1646 104.86 65.7387 108.191 60.1417C111.792 54.095 118.795 44.0106 125.437 44.5503C127.278 44.7002 129.819 45.7696 131.529 50.0673C135.071 58.9724 142.823 68.1973 151.497 67.4178C161.5 66.5083 165.341 58.5126 169.783 49.2577C171.524 45.6397 173.314 41.9017 175.595 38.3337C180.197 31.1176 185.008 29.7683 188.249 29.9083C193.241 30.1181 198.153 33.9361 201.384 40.1127C202.044 41.362 202.845 42.9811 203.765 44.8401C208.957 55.2744 219.741 76.9725 227.203 76.9725C227.223 76.9725 227.243 76.9725 227.263 76.9725C231.405 76.9126 232.895 74.0641 234.476 71.0358C235.976 68.1773 237.657 64.9591 241.738 64.9591Z" fill="#893510"/>
<path d="M202.955 385.853L246.19 386.853L250.081 370.872L234.836 328.105C230.084 322.378 224.022 302.289 221.541 285.338C219.051 268.378 213.869 262.551 203.815 258.743C193.762 254.935 182.408 262.441 180.037 267.298L140.453 271.316L109.992 253.606C104.8 244.521 86.9439 230.039 67.9072 252.766L58.814 278.512L67.7371 348.694L76.5002 381.236L159.209 388.752L224.082 384.464C224.082 384.464 224.993 377.538 216.6 359.128C208.207 340.718 199.634 313.563 199.994 293.874" fill="#23AECF"/>
<path d="M159.179 390.002L159.079 389.992L75.4998 382.396L66.4766 348.844L57.5134 278.373L66.7867 252.127L66.9368 251.957C74.5194 242.912 82.6223 238.715 91.0253 239.454C99.8484 240.244 107.311 246.62 110.892 252.687L140.723 270.028L179.246 266.11C182.468 260.723 193.922 253.646 204.255 257.564C215.569 261.852 220.421 269.068 222.782 285.149C225.293 302.28 231.375 321.979 235.806 327.296L235.946 327.466L251.392 370.792L247.17 388.113L202.985 387.094L159.179 390.002ZM77.4605 380.067L159.209 387.493L222.822 383.286C222.712 380.797 221.781 373.551 215.439 359.639C207.486 342.198 198.343 314.503 198.723 293.845C198.733 293.155 199.303 292.585 199.994 292.615C200.684 292.625 201.234 293.195 201.224 293.884C200.844 314.123 209.867 341.398 217.71 358.599C226.153 377.119 225.333 384.315 225.293 384.615L225.223 385.115L245.19 385.574L248.751 370.932L233.706 328.715C228.504 322.199 222.582 301.22 220.281 285.509C217.78 268.428 212.398 263.331 203.345 259.903C193.882 256.315 183.138 263.751 181.127 267.839L180.817 268.458L140.133 272.586L109.022 254.496L108.852 254.206C106.471 250.028 99.9684 242.752 90.7652 241.933C83.2725 241.263 75.9399 245.111 68.9575 253.377L60.0343 278.633L68.9174 348.435L77.4605 380.067Z" fill="#007C98"/>
<path d="M210.337 233.765C212.508 237.493 218.35 238.883 226.893 232.296C235.436 225.71 238.957 218.204 237.006 208.369C235.056 198.545 224.572 197.935 220.501 202.043" fill="#EFC298"/>
<path d="M216.199 238.153C215.519 238.153 214.919 238.083 214.389 237.983C212.178 237.554 210.357 236.274 209.257 234.395C208.907 233.796 209.117 233.036 209.707 232.686C210.297 232.336 211.068 232.536 211.418 233.136C212.158 234.405 213.348 235.225 214.859 235.525C217.84 236.104 221.841 234.615 226.123 231.307C234.496 224.851 237.567 217.634 235.776 208.619C234.776 203.562 231.475 201.863 229.594 201.293C226.603 200.394 223.232 201.064 221.381 202.923C220.891 203.412 220.101 203.412 219.611 202.933C219.12 202.443 219.12 201.653 219.601 201.164C222.072 198.675 226.473 197.745 230.304 198.905C234.416 200.144 237.297 203.512 238.217 208.13C240.208 218.184 236.847 226.18 227.633 233.286C222.692 237.124 218.87 238.153 216.199 238.153Z" fill="#AB6438"/>
<path d="M113.773 239.031L113.073 257.611L118.905 283.617L140.542 300.698L152.336 313.85L170.803 300.698L179.576 287.245L177.755 265.327L175.425 257.581" fill="#EFC298"/>
<path d="M152.157 315.509L139.682 301.606L117.785 284.326L111.812 257.72L112.523 238.98L115.024 239.08L114.323 257.49L120.025 282.906L141.473 299.867L152.527 312.18L169.883 299.817L178.296 286.924L176.525 265.556L174.225 257.94L176.625 257.22L179.006 265.226L180.857 287.564L171.714 301.576L152.157 315.509Z" fill="#AB6438"/>
<path d="M154.238 258.331C195.952 262.269 209.407 236.473 215.929 223.979C222.452 211.486 218.92 197.644 222.862 184.741C226.803 171.848 230.475 167.36 235.636 156.776C240.798 146.182 240.738 125.573 240.738 125.573C223.402 94.5102 191.601 94.5102 158.549 98.0783C125.487 101.646 117.485 90.3125 117.485 90.3125C117.485 90.3125 97.7277 116.468 101.659 177.735C101.659 177.735 96.3772 166.481 83.9528 167.37C71.5284 168.26 72.7989 191.307 74.1894 197.774C75.5799 204.23 80.9217 214.625 89.9149 215.254C95.3668 215.634 98.788 211.836 98.788 211.836C98.788 211.836 101.909 232.535 121.946 245.528" fill="#EFC298"/>
<path d="M162.59 259.98C159.9 259.98 157.079 259.85 154.117 259.571C153.427 259.511 152.927 258.901 152.987 258.211C153.047 257.522 153.667 257.012 154.348 257.082C195.202 260.92 208.447 235.594 214.809 223.42C218.43 216.474 218.85 209.208 219.28 201.512C219.601 195.865 219.931 190.029 221.651 184.392C224.462 175.197 227.153 170.179 230.274 164.383C231.605 161.914 232.975 159.365 234.496 156.247C239.127 146.742 239.448 128.552 239.468 125.924C222.141 95.2204 190.05 95.96 158.659 99.3482C131.59 102.277 120.896 95.3403 117.625 92.342C113.953 98.2088 99.4982 124.944 102.879 177.675C102.919 178.275 102.529 178.815 101.939 178.965C101.349 179.115 100.749 178.825 100.499 178.285C100.299 177.855 95.4168 167.841 84.0127 168.64C81.6819 168.81 79.8213 169.85 78.3307 171.849C73.299 178.545 74.4094 193.027 75.3897 197.534C76.7002 203.611 81.822 213.466 89.9749 214.035C94.7265 214.355 97.8076 211.057 97.8376 211.027C98.1677 210.667 98.6679 210.537 99.1281 210.677C99.5882 210.817 99.9284 211.207 99.9984 211.687C100.028 211.887 103.3 232.006 122.606 244.519C123.187 244.899 123.347 245.668 122.977 246.248C122.596 246.828 121.826 246.987 121.246 246.618C104.52 235.774 99.3382 219.912 97.9677 214.185C96.2871 215.375 93.4561 216.794 89.8048 216.534C80.2214 215.864 74.4694 205.13 72.9488 198.074C71.7284 192.427 70.8881 177.615 76.34 170.359C78.2707 167.791 80.7916 166.382 83.8427 166.162C91.9656 165.582 97.2674 169.92 100.138 173.338C97.4175 115.529 115.664 90.6529 116.464 89.5935C116.704 89.2737 117.084 89.1037 117.485 89.0938C117.885 89.1037 118.255 89.2936 118.485 89.6235C118.555 89.7234 126.678 100.288 158.389 96.8695C190.71 93.3814 223.772 92.6718 241.808 124.994C241.908 125.184 241.968 125.384 241.968 125.594C241.968 126.443 241.968 146.612 236.747 157.346C235.206 160.505 233.826 163.083 232.485 165.572C229.424 171.259 226.783 176.176 224.052 185.131C222.422 190.488 222.091 196.165 221.781 201.672C221.351 209.298 220.901 217.174 217.03 224.58C210.878 236.353 198.533 259.98 162.59 259.98Z" fill="#AB6438"/>
<path d="M101.639 178.987C100.989 178.987 100.439 178.478 100.389 177.818C96.4772 116.791 115.644 90.6455 116.464 89.5661C116.704 89.2463 117.084 89.0764 117.485 89.0664C117.885 89.0764 118.255 89.2663 118.485 89.5961C118.555 89.6961 126.678 100.26 158.389 96.8422C190.71 93.3541 223.772 92.6444 241.808 124.967C242.149 125.566 241.929 126.326 241.328 126.666C240.728 127.006 239.968 126.786 239.628 126.186C222.342 95.2031 190.15 95.9327 158.659 99.3308C131.59 102.259 120.896 95.323 117.625 92.3246C113.953 98.1914 99.4983 124.927 102.879 177.658C102.919 178.348 102.399 178.937 101.709 178.987C101.699 178.987 101.669 178.987 101.639 178.987Z" fill="#893510"/>
<path d="M82.9822 178.219C88.204 178.219 98.5277 184.265 97.9375 201.346L82.9822 178.219Z" fill="#EFC298"/>
<path d="M97.9376 202.333C97.9276 202.333 97.9176 202.333 97.8976 202.333C97.3474 202.313 96.9172 201.854 96.9372 201.304C97.2773 191.659 94.0362 186.222 91.2752 183.354C88.3142 180.295 84.963 179.206 82.9823 179.206C82.4321 179.206 81.9819 178.756 81.9819 178.206C81.9819 177.657 82.4321 177.207 82.9823 177.207C85.4632 177.207 89.3245 178.456 92.7157 181.964C95.7568 185.113 99.298 191.029 98.9379 201.374C98.9179 201.914 98.4778 202.333 97.9376 202.333Z" fill="#AB6438"/>
<path d="M80.491 191.613C80.491 198.14 83.342 203.707 87.6135 205.136L80.491 191.613Z" fill="#EFC298"/>
<path d="M87.6138 206.135C87.5138 206.135 87.4037 206.115 87.2937 206.085C82.6221 204.526 79.491 198.719 79.491 191.613C79.491 191.063 79.9411 190.613 80.4913 190.613C81.0415 190.613 81.4917 191.063 81.4917 191.613C81.4917 197.749 84.1426 202.917 87.9339 204.186C88.4541 204.356 88.7442 204.925 88.5642 205.445C88.4241 205.875 88.034 206.135 87.6138 206.135Z" fill="#AB6438"/>
<path d="M88.9146 198.38C88.9146 193.992 90.305 189.364 96.9074 191.623L88.9146 198.38Z" fill="#EFC298"/>
<path d="M88.9147 199.377C88.3645 199.377 87.9143 198.927 87.9143 198.377C87.9143 194.749 88.8246 192.26 90.6153 190.981C92.2258 189.832 94.4566 189.722 97.2376 190.671C97.7578 190.851 98.0379 191.421 97.8578 191.941C97.6778 192.46 97.1075 192.74 96.5874 192.56C94.4566 191.831 92.836 191.851 91.7757 192.6C90.2351 193.7 89.905 196.348 89.905 198.377C89.915 198.927 89.4749 199.377 88.9147 199.377Z" fill="#AB6438"/>
<path d="M219.931 227.272C222.432 224.654 221.701 218.507 217.75 219.767C221.451 214.01 226.553 212.531 231.185 212.77" fill="#EFC298"/>
<path d="M219.931 228.273C219.681 228.273 219.431 228.183 219.241 227.993C218.84 227.613 218.82 226.984 219.201 226.584C220.541 225.175 220.681 222.526 219.891 221.277C219.481 220.627 218.9 220.447 218.05 220.717C217.65 220.847 217.21 220.707 216.95 220.377C216.69 220.048 216.67 219.588 216.9 219.228C220.231 214.041 225.183 211.482 231.225 211.772C231.775 211.802 232.205 212.272 232.175 212.822C232.145 213.371 231.675 213.791 231.125 213.771C226.413 213.521 222.582 215.2 219.721 218.738C220.471 218.968 221.111 219.468 221.591 220.218C222.952 222.386 222.512 226.014 220.651 227.963C220.461 228.163 220.191 228.273 219.931 228.273Z" fill="#AB6438"/>
<path d="M115.844 243.191C123.246 251.997 147.245 262.321 165.251 262.201C165.251 262.201 139.142 273.575 121.846 263.73C113.073 258.733 115.844 243.191 115.844 243.191Z" fill="#E4B388"/>
<path d="M148.346 245.649C148.076 245.649 147.805 245.539 147.615 245.329C147.245 244.919 147.265 244.289 147.675 243.92C149.346 242.37 155.508 240.441 161.31 242.24C161.84 242.41 162.131 242.97 161.97 243.49C161.8 244.02 161.25 244.309 160.72 244.149C155.628 242.56 150.226 244.299 149.036 245.389C148.826 245.559 148.586 245.649 148.346 245.649Z" fill="#A75C35"/>
<path d="M160.62 130.872C165.171 127.424 161.33 119.828 147.945 119.828C134.561 119.828 127.488 129.113 130.379 131.932C133.21 134.69 137.071 131.572 141.123 130.292C149.406 127.674 155.018 135.12 160.62 130.872Z" fill="#863716"/>
<path d="M204.135 141.505C202.395 136.038 213.038 132.69 220.251 136.078C227.463 139.466 233.315 146.752 232.545 151.33C231.785 155.907 227.033 154.548 221.261 148.791C215.499 143.024 206.586 149.211 204.135 141.505Z" fill="#863716"/>
<path d="M174.324 178.988C173.504 189.413 181.297 195.659 177.205 201.626C173.914 206.423 165.251 200.936 162.44 198.198" fill="#EFC298"/>
<path d="M173.344 204.523C168.943 204.523 163.701 200.815 161.75 198.906C161.36 198.516 161.35 197.886 161.73 197.496C162.11 197.107 162.75 197.097 163.141 197.476C165.111 199.395 170.253 202.843 173.854 202.494C174.965 202.384 175.785 201.914 176.375 201.054C178.276 198.286 177.216 195.448 175.755 191.53C174.425 187.982 172.924 183.964 173.324 178.907C173.364 178.357 173.834 177.947 174.405 177.987C174.955 178.027 175.365 178.517 175.325 179.066C174.955 183.684 176.385 187.482 177.636 190.83C179.126 194.808 180.527 198.556 178.036 202.184C177.106 203.543 175.765 204.313 174.054 204.483C173.824 204.513 173.584 204.523 173.344 204.523Z" fill="#AB6438"/>
<path d="M154.197 214.237C176.065 213.028 179.106 228.939 178.876 232.637C178.646 236.345 175.985 238.384 170.423 236.895C164.861 235.416 154.427 233.327 142.033 236.105C129.639 238.884 132.26 226.73 135.081 222.793C138.322 218.275 143.774 214.817 154.197 214.237Z" fill="#5C2312"/>
<path d="M173.735 238.642C172.644 238.642 171.434 238.463 170.103 238.113C160.63 235.584 151.277 235.324 142.313 237.333C136.511 238.632 133.871 236.763 132.68 234.964C130.249 231.296 131.96 225.02 134.071 222.071C138.072 216.485 144.634 213.516 154.138 212.986C162.971 212.497 169.813 214.636 174.485 219.343C179.487 224.37 180.257 230.707 180.127 232.716C179.997 234.815 179.176 236.464 177.756 237.483C176.696 238.253 175.345 238.642 173.735 238.642ZM154.428 233.495C159.8 233.495 165.262 234.225 170.754 235.694C173.244 236.364 175.165 236.274 176.306 235.464C177.106 234.884 177.556 233.915 177.636 232.566C177.736 230.977 177.046 225.46 172.714 221.102C168.563 216.924 162.351 215.035 154.278 215.485C145.465 215.975 139.693 218.533 136.111 223.531C134.451 225.839 133.08 231.027 134.771 233.585C135.871 235.244 138.232 235.684 141.773 234.894C145.915 233.965 150.146 233.495 154.428 233.495Z" fill="#8E3014"/>
<path d="M171.564 220.023C170.843 220.933 169.943 222.822 158.379 222.632C146.815 222.442 142.693 221.073 141.573 218.644C141.573 218.644 146.815 215.306 157.379 215.446C157.379 215.446 162.83 215.466 166.602 217.125C166.602 217.105 169.973 218.484 171.564 220.023Z" fill="white"/>
<path d="M134.561 235.216C136.141 231.538 141.053 229.319 146.325 231.098L134.561 235.216Z" fill="#F2A0A2"/>
<path d="M123.517 167.532C125.317 170.77 128.268 174.408 137.602 174.528C146.935 174.648 151.907 172.179 152.007 166.812C152.107 161.435 150.106 154.919 140.002 154.319C129.899 153.709 124.437 164.044 123.517 167.532Z" fill="white"/>
<path d="M157.259 234.815C156.678 230.457 148.306 227.759 144.984 230.727L157.259 234.815Z" fill="#F2A0A2"/>
<path d="M187.919 175.168C188.86 180.325 191.271 183.963 200.004 187.022C208.737 190.08 213.969 186.442 214.819 182.734C215.659 179.026 213.929 168.872 203.945 167.113C193.962 165.344 189.3 173.209 187.919 175.168Z" fill="white"/>
<path d="M123.197 168.673C123.527 164.975 125.157 161.297 127.768 158.428C130.349 155.56 133.971 153.331 138.062 152.911C140.093 152.691 142.153 152.971 144.034 153.521C145.935 154.081 147.835 155.03 149.286 156.519C150.026 157.229 150.616 158.098 151.097 158.978C151.517 159.897 151.877 160.827 152.047 161.786C152.417 163.705 152.337 165.604 152.017 167.423C151.437 163.795 150.356 160.187 147.725 158.238C146.455 157.259 144.934 156.619 143.304 156.249C141.643 155.88 140.013 155.7 138.392 155.88C135.131 156.199 132.04 157.838 129.419 160.067C126.798 162.346 124.737 165.294 123.197 168.673Z" fill="black"/>
<path d="M187.439 175.988C188.62 172.67 190.76 169.462 194.012 167.443C195.602 166.414 197.463 165.724 199.383 165.454C201.314 165.174 203.295 165.344 205.145 165.864C206.996 166.404 208.727 167.193 210.297 168.362C211.848 169.522 213.168 171.051 213.999 172.79C215.729 176.278 215.639 180.176 214.689 183.554C214.409 180.026 213.748 176.588 211.968 173.949C210.227 171.311 207.416 169.622 204.335 168.752C201.304 167.873 198.063 168.123 195.132 169.492C192.181 170.841 189.7 173.26 187.439 175.988Z" fill="black"/>
<path d="M137.292 172.979C141.286 172.979 144.524 169.744 144.524 165.753C144.524 161.763 141.286 158.527 137.292 158.527C133.297 158.527 130.059 161.763 130.059 165.753C130.059 169.744 133.297 172.979 137.292 172.979Z" fill="#4B99AF"/>
<path d="M137.291 170.298C139.805 170.298 141.843 168.262 141.843 165.751C141.843 163.239 139.805 161.203 137.291 161.203C134.778 161.203 132.74 163.239 132.74 165.751C132.74 168.262 134.778 170.298 137.291 170.298Z" fill="black"/>
<path d="M141.843 164.673C143.882 164.673 145.534 163.022 145.534 160.985C145.534 158.948 143.882 157.297 141.843 157.297C139.804 157.297 138.152 158.948 138.152 160.985C138.152 163.022 139.804 164.673 141.843 164.673Z" fill="white"/>
<path d="M135.191 171.025C136.147 171.025 136.921 170.25 136.921 169.295C136.921 168.341 136.147 167.566 135.191 167.566C134.235 167.566 133.46 168.341 133.46 169.295C133.46 170.25 134.235 171.025 135.191 171.025Z" fill="white"/>
<path d="M199.634 184.343C203.628 184.343 206.866 181.108 206.866 177.117C206.866 173.126 203.628 169.891 199.634 169.891C195.639 169.891 192.401 173.126 192.401 177.117C192.401 181.108 195.639 184.343 199.634 184.343Z" fill="#4B99AF"/>
<path d="M199.634 181.665C202.147 181.665 204.185 179.629 204.185 177.118C204.185 174.606 202.147 172.57 199.634 172.57C197.12 172.57 195.082 174.606 195.082 177.118C195.082 179.629 197.12 181.665 199.634 181.665Z" fill="black"/>
<path d="M205.886 177.638C207.925 177.638 209.577 175.987 209.577 173.95C209.577 171.913 207.925 170.262 205.886 170.262C203.847 170.262 202.195 171.913 202.195 173.95C202.195 175.987 203.847 177.638 205.886 177.638Z" fill="white"/>
<path d="M197.533 182.384C198.489 182.384 199.263 181.61 199.263 180.655C199.263 179.7 198.489 178.926 197.533 178.926C196.577 178.926 195.802 179.7 195.802 180.655C195.802 181.61 196.577 182.384 197.533 182.384Z" fill="white"/>
<path d="M237.957 177.118C237.957 177.118 239.327 182.075 238.707 184.344C238.087 186.613 220.531 201.535 220.531 201.535C220.531 201.535 221.941 187.332 223.222 183.554C223.222 183.554 237.667 173.09 237.957 177.118Z" fill="black"/>
<path d="M138.53 191C137.547 191 136.555 190.936 135.554 190.808C126.31 189.607 119.452 185.986 115.158 180.038C108.178 170.341 109.787 156.684 111.378 149.397C112.323 145.071 116.702 142.276 121.127 143.165L159.104 150.736C161.901 151.295 164.306 153.009 165.719 155.438C167.122 157.857 167.384 160.744 166.448 163.366C159.955 181.523 150.346 191 138.53 191Z" fill="url(#paint0_linear)"/>
<path d="M209.53 206C208.547 206 207.555 205.936 206.554 205.808C197.31 204.607 190.452 200.986 186.158 195.038C179.178 185.341 180.787 171.684 182.378 164.397C183.323 160.071 187.702 157.276 192.127 158.165L230.104 165.736C232.901 166.295 235.306 168.009 236.719 170.438C238.122 172.857 238.384 175.744 237.448 178.366C230.955 196.523 221.346 206 209.53 206Z" fill="url(#paint1_linear)"/>
<path d="M138.992 193.306C137.942 193.306 136.881 193.236 135.811 193.096C125.927 191.787 118.595 187.839 114.003 181.353C106.541 170.778 108.261 155.887 109.962 147.941C110.972 143.224 115.654 140.175 120.385 141.145L160.99 149.4C163.981 150.01 166.552 151.879 168.062 154.527C169.563 157.166 169.843 160.314 168.843 163.173C161.9 182.972 151.626 193.306 138.992 193.306ZM118.625 143.963C115.924 143.963 113.483 145.842 112.903 148.561C111.312 156.017 109.652 169.979 116.464 179.614C120.545 185.39 127.188 188.929 136.211 190.118C152.017 192.207 161.14 176.076 166.022 162.173C166.742 160.134 166.532 157.885 165.461 156.007C164.381 154.108 162.54 152.778 160.41 152.339L119.805 144.083C119.405 144.003 119.005 143.963 118.625 143.963Z" fill="black"/>
<path d="M207.826 207.012C206.256 207.012 204.625 206.862 202.925 206.532C179.646 202.084 179.086 178.347 180.827 164.595C181.167 161.886 182.658 159.448 184.908 157.889C187.179 156.319 190.02 155.79 192.711 156.439L232.155 165.914C234.816 166.554 237.077 168.303 238.357 170.722C239.628 173.12 239.808 175.959 238.857 178.497C236.186 185.533 226.513 207.012 207.826 207.012ZM190.44 159.168C189.09 159.168 187.749 159.578 186.619 160.357C185.048 161.447 184.048 163.086 183.808 164.975C182.197 177.688 182.617 199.606 203.485 203.594C223.112 207.342 233.365 184.524 236.046 177.438C236.697 175.709 236.577 173.77 235.706 172.131C234.826 170.472 233.275 169.272 231.455 168.833L192.011 159.358C191.491 159.228 190.96 159.168 190.44 159.168Z" fill="black"/>
<path d="M245.399 135.996C244.119 131.389 240.728 125.582 240.728 125.582L245.399 135.996Z" fill="#B15929"/>
<path d="M245.4 137.245C244.85 137.245 244.35 136.886 244.199 136.326C242.979 131.928 239.688 126.261 239.658 126.202C239.308 125.602 239.508 124.842 240.108 124.492C240.698 124.143 241.469 124.343 241.819 124.942C241.959 125.182 245.3 130.949 246.61 135.656C246.79 136.326 246.41 137.006 245.74 137.196C245.62 137.225 245.51 137.245 245.4 137.245Z" fill="#893510"/>
<path d="M167.842 160.984L165.101 168.67L181.737 172.568L182.317 164.782L167.842 160.984Z" fill="black"/>
<path d="M233.065 329.986C216.78 320.191 219.351 285.99 212.078 275.016C204.805 264.042 194.492 258.005 180.037 267.3C180.037 267.3 187.059 261.793 188.88 261.143C190.7 260.494 198.633 255.896 208.587 262.383C218.54 268.869 218.61 278.084 220.081 283.891C221.561 289.698 222.512 307.438 232.625 327.217L233.065 329.986Z" fill="#32BEDF"/>
<path d="M277.341 264.756C282.843 264.856 291.426 262.357 292.706 257.04C293.986 251.733 291.876 247.315 295.017 247.055C298.158 246.795 299.889 252.562 297.388 261.388L304.59 269.773L297.298 279.548L272.329 274.44" fill="#EFC298"/>
<path d="M297.288 280.547C297.218 280.547 297.158 280.537 297.088 280.527L272.119 275.42C271.579 275.31 271.229 274.78 271.339 274.241C271.449 273.701 271.979 273.351 272.519 273.461L296.868 278.438L303.31 269.813L296.628 262.037C296.408 261.787 296.338 261.438 296.428 261.118C298.228 254.751 297.698 250.274 296.368 248.665C295.998 248.215 295.577 247.995 295.097 248.045C294.317 248.105 294.137 248.425 294.177 251.333C294.197 252.982 294.227 255.041 293.687 257.26C292.256 263.217 283.103 265.845 277.331 265.735C276.781 265.725 276.341 265.266 276.351 264.716C276.361 264.166 276.801 263.716 277.371 263.736C282.653 263.826 290.616 261.468 291.746 256.79C292.226 254.811 292.206 252.972 292.176 251.353C292.146 248.854 292.116 246.276 294.937 246.046C296.048 245.956 297.128 246.426 297.908 247.385C299.909 249.814 300.119 255.051 298.488 261.128L305.351 269.113C305.651 269.473 305.671 269.983 305.391 270.363L298.098 280.137C297.898 280.407 297.598 280.547 297.288 280.547Z" fill="#AB6438"/>
<path d="M111.552 147.793C107.021 146.563 87.734 160.236 86.3235 166.772L95.0466 170.29C95.0466 170.29 106.701 160.526 109.992 159.986L111.552 147.793Z" fill="black"/>
<path d="M288.285 267.478C292.386 266.578 299.199 263.81 301.93 250.257C303.36 243.151 307.912 246.599 307.982 250.767C308.052 255.454 306.201 262.401 301.56 266.588" fill="#EFC298"/>
<path d="M288.285 268.475C287.825 268.475 287.415 268.156 287.305 267.686C287.185 267.146 287.525 266.616 288.065 266.496C290.536 265.957 298.068 264.308 300.939 250.055C301.88 245.388 304.131 245.078 305.051 245.168C307.132 245.358 308.932 247.917 308.972 250.745C309.052 255.892 307.002 263.008 302.22 267.316C301.81 267.686 301.18 267.656 300.809 267.246C300.439 266.836 300.469 266.207 300.879 265.837C305.171 261.969 307.042 255.323 306.972 250.775C306.942 248.876 305.791 247.247 304.871 247.157C304.081 247.077 303.32 248.376 302.91 250.445C300.799 260.9 296.088 266.776 288.495 268.435C288.425 268.465 288.355 268.475 288.285 268.475Z" fill="#AB6438"/>
<path d="M298.238 275.792C303.14 275.732 311.653 268.756 313.123 262.48C314.604 256.203 310.312 256.913 309.222 258.322C308.131 259.731 303.33 268.436 293.276 269.776" fill="#EFC298"/>
<path d="M298.238 276.791C297.688 276.791 297.248 276.352 297.238 275.802C297.228 275.252 297.668 274.793 298.228 274.793C302.67 274.733 310.773 268.116 312.153 262.249C312.623 260.24 312.483 258.791 311.783 258.451C311.223 258.182 310.313 258.551 310.012 258.931C309.902 259.071 309.752 259.291 309.562 259.571C307.892 262.03 302.82 269.505 293.397 270.765C292.846 270.835 292.346 270.455 292.276 269.905C292.206 269.355 292.586 268.856 293.136 268.786C301.669 267.646 306.201 260.97 307.912 258.451C308.132 258.122 308.302 257.872 308.432 257.712C309.262 256.632 311.163 255.943 312.643 256.652C313.614 257.112 315.094 258.511 314.104 262.709C312.473 269.615 303.51 276.721 298.258 276.791C298.248 276.791 298.248 276.791 298.238 276.791Z" fill="#AB6438"/>
<path d="M291.586 274.113C291.586 274.113 296.958 276.182 304.04 276.332C311.123 276.472 313.134 278.331 313.134 279.91C313.134 281.479 308.982 282.268 302.11 282.408C286.144 282.738 282.713 279.12 277.491 278.9C272.269 278.68 268.828 282.978 269.198 289.355L257.234 291.493L246.58 283.108C246.49 272.724 248.561 267.826 251.172 262.719C253.593 257.992 257.204 255.603 268.328 256.083L277.371 247.517C278.642 246.318 280.562 246.128 282.033 247.068C283.953 248.287 284.394 250.906 282.953 252.675L273.83 263.949" fill="#EFC298"/>
<path d="M257.224 292.501C257.004 292.501 256.784 292.431 256.604 292.291L245.95 283.905C245.71 283.715 245.57 283.435 245.57 283.126C245.48 272.511 247.64 267.404 250.271 262.267C252.762 257.39 256.473 254.641 267.938 255.071L276.681 246.796C278.281 245.276 280.702 245.046 282.563 246.226C283.723 246.955 284.513 248.155 284.733 249.504C284.953 250.853 284.593 252.243 283.723 253.312L274.6 264.586C274.25 265.016 273.62 265.086 273.189 264.736C272.759 264.386 272.689 263.756 273.039 263.326L282.163 252.053C282.663 251.433 282.883 250.623 282.753 249.834C282.623 249.044 282.163 248.345 281.482 247.915C280.392 247.225 278.981 247.365 278.041 248.245L268.998 256.81C268.798 257 268.518 257.1 268.268 257.08C257.474 256.61 254.243 258.859 252.042 263.167C249.491 268.154 247.54 272.771 247.56 282.616L257.484 290.432L268.158 288.523C268.138 285.155 269.158 282.286 271.059 280.357C272.739 278.648 274.98 277.809 277.521 277.909C279.422 277.988 281.092 278.478 283.023 279.058C286.684 280.137 291.686 281.636 302.08 281.417C311.313 281.227 312.103 279.917 312.133 279.857C312.123 279.008 310.412 277.459 304.01 277.329C296.828 277.189 291.446 275.13 291.216 275.04C290.696 274.84 290.445 274.261 290.646 273.751C290.846 273.241 291.426 272.981 291.936 273.181C291.986 273.201 297.238 275.19 304.05 275.33C312.813 275.51 314.124 278.268 314.124 279.907C314.124 282.186 310.533 283.236 302.12 283.406C291.426 283.625 286.234 282.086 282.453 280.967C280.572 280.407 279.081 279.967 277.441 279.897C275.47 279.817 273.76 280.457 272.489 281.746C270.829 283.435 270.008 286.114 270.188 289.292C270.218 289.802 269.868 290.242 269.368 290.332L257.404 292.471C257.344 292.491 257.284 292.501 257.224 292.501Z" fill="#AB6438"/>
<path d="M260.605 267.799C265.347 263.251 277.321 261.272 285.144 269.788L260.605 267.799Z" fill="#EFC298"/>
<path d="M285.144 270.775C284.874 270.775 284.604 270.665 284.404 270.455C280.362 266.058 275.591 265.008 272.299 264.898C268.058 264.768 263.736 266.178 261.305 268.516C260.905 268.896 260.275 268.886 259.895 268.486C259.515 268.087 259.525 267.457 259.925 267.077C262.766 264.349 267.548 262.749 272.369 262.909C276.051 263.029 281.373 264.199 285.884 269.116C286.254 269.526 286.234 270.155 285.824 270.525C285.624 270.695 285.384 270.775 285.144 270.775Z" fill="#AB6438"/>
<path d="M227.233 357.39C218.98 352.073 205.045 305.558 204.455 300.121C204.455 300.121 202.004 302.98 202.074 306.897C202.144 310.815 204.915 321.319 205.506 324.268C206.096 327.216 211.578 344.057 212.988 347.415C214.399 350.773 221.011 365.235 223.282 372.951C225.553 380.667 225.553 383.895 225.273 385.135L232.875 385.784L227.303 369.403L227.233 357.39Z" fill="#1499BC"/>
<path d="M230.235 377.102C221.041 361.121 234.246 327.309 237.217 316.555C240.188 305.801 242.389 280.645 242.389 280.645C254.263 288.88 274.38 289.859 274.38 289.859C274.38 289.859 273.26 326.849 271.169 343.88C269.078 360.911 266.837 373.514 258.314 381.24L242.869 386.856L231.075 385.227" fill="#23AECF"/>
<path d="M242.859 388.104C242.799 388.104 242.749 388.104 242.689 388.094L230.895 386.465C230.214 386.375 229.734 385.735 229.824 385.055C229.924 384.376 230.555 383.896 231.235 383.986L242.719 385.575L257.634 380.148C265.787 372.602 267.868 360.279 269.908 343.728C271.759 328.676 272.859 297.533 273.07 291.027C268.698 290.687 253.873 289.118 243.419 282.821C242.829 289.088 240.908 307.838 238.397 316.893C237.947 318.512 237.267 320.651 236.487 323.129C232.035 337.182 223.742 363.347 231.295 376.48C231.635 377.08 231.435 377.839 230.835 378.189C230.234 378.529 229.474 378.329 229.124 377.729C221.021 363.647 229.534 336.802 234.096 322.38C234.876 319.931 235.546 317.812 235.976 316.233C238.888 305.709 241.078 280.802 241.108 280.553C241.148 280.113 241.418 279.723 241.819 279.533C242.219 279.343 242.699 279.383 243.059 279.633C254.503 287.569 274.2 288.618 274.4 288.628C275.08 288.658 275.61 289.228 275.59 289.917C275.58 290.287 274.45 327.157 272.369 344.048C270.319 360.709 268.038 374.091 259.115 382.177C258.995 382.287 258.855 382.367 258.705 382.427L243.259 388.044C243.149 388.074 243.009 388.104 242.859 388.104Z" fill="#007C98"/>
<path d="M94.6461 286.258C87.4136 299.471 84.9827 321.099 85.783 334.242L94.6461 286.258Z" fill="#23AECF"/>
<path d="M85.7835 335.491C85.1233 335.491 84.5731 334.981 84.5331 334.322C83.6528 319.93 86.4737 298.591 93.5462 285.668C93.8764 285.059 94.6366 284.839 95.2469 285.169C95.8571 285.498 96.0771 286.258 95.747 286.868C88.9746 299.241 86.2037 320.479 87.034 334.172C87.074 334.862 86.5538 335.451 85.8635 335.491C85.8435 335.491 85.8135 335.491 85.7835 335.491Z" fill="#007C98"/>
<path d="M204.775 297.551C201.684 302.038 201.154 302.498 200.824 306.906L204.775 297.551Z" fill="#23AECF"/>
<path d="M200.824 308.153C200.794 308.153 200.764 308.153 200.724 308.153C200.034 308.103 199.523 307.503 199.573 306.813C199.914 302.376 200.534 301.486 203.135 297.728L203.745 296.849C204.135 296.279 204.915 296.139 205.486 296.529C206.056 296.919 206.196 297.698 205.806 298.268L205.195 299.158C202.685 302.786 202.354 303.245 202.074 307.013C202.014 307.653 201.474 308.153 200.824 308.153Z" fill="#007C98"/>
<path d="M101.919 269.985C105.68 265.667 108.451 257.691 108.451 257.691L101.919 269.985Z" fill="#23AECF"/>
<path d="M101.919 271.234C101.629 271.234 101.339 271.134 101.099 270.924C100.579 270.474 100.529 269.685 100.979 269.165C104.54 265.087 107.251 257.362 107.271 257.282C107.501 256.632 108.211 256.282 108.862 256.512C109.512 256.742 109.862 257.452 109.632 258.101C109.512 258.441 106.741 266.357 102.859 270.804C102.619 271.084 102.269 271.234 101.919 271.234Z" fill="#007C98"/>
<path d="M222.962 383.507L160.84 388.644L90.9751 382.558L87.0937 334.244C85.6332 311.217 92.6256 293.996 92.6256 293.996C91.5553 314.545 90.785 341.12 97.5074 354.413C104.23 367.696 117.554 380.109 141.433 383.327C165.311 386.536 187.669 382.308 199.513 373.693C211.348 365.077 212.988 358.511 213.268 354.633C213.278 354.623 221.971 372.053 222.962 383.507Z" fill="#1399BC"/>
<path d="M246.18 386.853L242.919 381.236C232.835 374.92 239.678 341.708 241.588 329.005C243.499 316.302 247.641 293.864 248.091 285.199C248.091 285.199 244.469 283.5 243.429 282.82C243.429 282.82 241.979 297.122 241.238 301.48C240.498 305.848 240.158 312.814 236.297 323.768C236.297 323.768 232.655 335.362 231.405 340.649C230.154 345.946 226.773 362.277 228.974 370.033C228.974 370.033 229.474 372.261 229.754 372.941C230.034 373.621 230.574 375.25 230.975 375.799C230.975 375.799 231.375 376.599 231.455 376.749L231.485 376.949L231.495 377.149L231.475 377.309L231.435 377.469L231.385 377.588L231.305 377.738L231.195 377.888L231.065 378.008L230.945 378.108L230.845 378.168L230.775 378.198L230.695 378.238L230.564 378.278L230.464 378.298L230.364 378.308L230.985 384.365L243.959 386.034" fill="#159ABD"/>
<path d="M260.115 379.415C267.137 364.323 267.287 316.729 267.147 290.344L273.099 291.023C273.099 291.023 272.409 308.184 272.269 311.692C272.129 315.2 270.899 335.029 270.278 340.756C269.658 346.483 267.437 361.255 266.157 365.183C264.866 369.111 260.115 379.415 260.115 379.415Z" fill="#37BDE0"/>
<path d="M274.1 298.801C256.524 298.741 245.13 293.743 240.718 289.476C240.218 288.996 240.208 288.206 240.688 287.707C241.168 287.207 241.958 287.197 242.459 287.677C246.86 291.934 258.354 296.252 274.1 296.302C274.79 296.302 275.35 296.862 275.35 297.551C275.35 298.241 274.79 298.801 274.1 298.801Z" fill="#007C98"/>
<path d="M133.751 286.258C138.262 293.094 148.386 305.767 154.438 308.206C154.438 308.206 166.342 303.818 174.635 286.867L180.027 290.895C180.027 290.895 174.755 310.405 153.397 317.96C153.397 317.96 136.181 307.676 126.788 289.836L133.751 286.258Z" fill="white"/>
<path d="M153.397 319.221C153.177 319.221 152.947 319.161 152.757 319.041C152.047 318.611 135.131 308.367 125.678 290.427C125.517 290.137 125.487 289.787 125.587 289.467C125.688 289.147 125.908 288.888 126.208 288.728L133.17 285.15C133.74 284.86 134.431 285.04 134.781 285.569C139.512 292.725 148.866 304.189 154.428 306.848C156.618 305.858 166.432 300.741 173.494 286.319C173.654 285.989 173.965 285.739 174.325 285.649C174.695 285.559 175.075 285.639 175.365 285.859L180.757 289.887C181.167 290.197 181.347 290.717 181.217 291.216C180.997 292.036 175.525 311.445 153.797 319.141C153.677 319.201 153.537 319.221 153.397 319.221ZM128.489 290.367C136.821 305.379 150.746 314.803 153.537 316.582C171.144 310.076 177.306 294.994 178.556 291.366L175.075 288.768C166.702 304.869 155.348 309.206 154.858 309.386C154.568 309.496 154.248 309.486 153.958 309.376C147.635 306.828 137.772 294.385 133.32 287.888L128.489 290.367Z" fill="#007C98"/>
<path d="M113.043 251.137C116.494 262.391 122.306 273.065 133.95 282.5C135.881 284.069 135.941 286.998 134.06 288.627L120.856 300.09C119.045 301.66 116.234 301.04 115.264 298.851C110.502 288.067 99.6881 260.252 109.772 250.308C110.822 249.278 112.613 249.728 113.043 251.137Z" fill="white"/>
<path d="M118.535 302.23C118.185 302.23 117.825 302.19 117.464 302.11C115.964 301.77 114.743 300.771 114.123 299.361C109.031 287.818 98.3277 259.853 108.891 249.419C109.702 248.619 110.842 248.309 111.952 248.589C113.053 248.869 113.913 249.679 114.243 250.768C118.175 263.611 124.687 273.386 134.741 281.531C135.951 282.511 136.661 283.97 136.691 285.529C136.721 287.078 136.061 288.557 134.881 289.577L121.676 301.041C120.786 301.82 119.675 302.23 118.535 302.23ZM111.152 250.998C111.012 250.998 110.822 251.038 110.652 251.208C100.929 260.803 112.603 289.727 116.414 298.362C116.714 299.032 117.294 299.511 118.015 299.681C118.735 299.841 119.475 299.651 120.035 299.172L133.24 287.708C133.85 287.178 134.2 286.399 134.19 285.589C134.18 284.769 133.8 284.01 133.17 283.49C122.716 275.015 115.944 264.86 111.852 251.518C111.742 251.168 111.452 251.058 111.342 251.028C111.292 251.008 111.222 250.998 111.152 250.998Z" fill="#007C98"/>
<path d="M174.794 262.079C174.884 267.406 174.384 278.09 169.773 286.686C168.992 288.135 169.753 289.904 171.333 290.354C174.364 291.213 179.256 293.172 185.388 297.58C186.679 298.499 188.479 297.63 188.509 296.04C188.679 288.335 187.839 270.624 177.375 260.92C176.385 260.01 174.774 260.74 174.794 262.079Z" fill="white"/>
<path d="M186.539 299.209C185.869 299.209 185.209 298.999 184.648 298.599C178.656 294.292 173.905 292.393 170.974 291.563C169.853 291.243 168.953 290.454 168.503 289.384C168.053 288.315 168.113 287.126 168.663 286.096C173.104 277.811 173.625 267.506 173.535 262.109C173.515 260.99 174.165 259.97 175.195 259.521C176.225 259.061 177.386 259.251 178.216 260.02C189.14 270.145 189.92 288.615 189.75 296.091C189.72 297.28 189.04 298.349 187.98 298.879C187.519 299.089 187.029 299.209 186.539 299.209ZM176.045 262.059C176.135 267.706 175.585 278.49 170.874 287.275C170.614 287.765 170.724 288.195 170.814 288.405C170.904 288.615 171.134 289.005 171.664 289.154C174.785 290.044 179.827 292.053 186.109 296.57C186.439 296.8 186.749 296.69 186.859 296.63C186.969 296.57 187.239 296.401 187.249 296.021C187.409 288.885 186.689 271.284 176.516 261.839C176.426 261.759 176.336 261.739 176.216 261.799C176.135 261.829 176.035 261.909 176.045 262.059Z" fill="#007C98"/>
<path d="M16.3289 244.597C10.6469 241.958 7.74583 232.903 11.3271 232.253C15.0284 231.584 15.7086 235.372 19.7801 238.79L36.1559 251.103" fill="#EFC298"/>
<path d="M36.1558 252.093C35.9457 252.093 35.7357 252.023 35.5556 251.893L19.1798 239.58C17.5993 238.261 16.5089 236.901 15.6386 235.812C14.018 233.793 13.2277 232.914 11.5071 233.233C11.3271 233.263 10.8969 233.343 10.7769 234.273C10.4568 236.742 12.8776 241.889 16.749 243.688C17.2491 243.918 17.4692 244.517 17.2391 245.017C17.0091 245.517 16.4089 245.737 15.9087 245.507C11.4171 243.428 8.34601 237.521 8.79617 234.023C8.98623 232.514 9.84654 231.504 11.147 231.275C14.108 230.745 15.5385 232.514 17.1891 234.573C18.0594 235.652 19.0398 236.861 20.4203 238.031L36.746 250.314C37.1862 250.644 37.2762 251.274 36.9461 251.713C36.756 251.953 36.4559 252.093 36.1558 252.093Z" fill="#AB6438"/>
<path d="M56.7427 264.912C51.801 267.061 43.5781 267.151 31.4838 261.724C25.2716 258.936 10.4464 254.958 3.03378 248.032C0.562912 245.723 3.11381 244.214 4.46429 244.683" fill="#EFC298"/>
<path d="M49.3505 267.29C44.8389 267.29 38.8568 266.121 31.0741 262.632C29.5035 261.933 27.3728 261.143 24.9019 260.244C17.7694 257.625 8.00593 254.037 2.35393 248.76C0.443258 246.971 1.01346 245.512 1.34358 244.962C2.00381 243.873 3.59437 243.313 4.8048 243.743C5.32498 243.923 5.59508 244.492 5.41502 245.022C5.23495 245.542 4.66475 245.812 4.13456 245.632C3.83445 245.522 3.24425 245.692 3.05418 246.012C2.86412 246.331 3.27426 246.891 3.72442 247.311C9.07631 252.308 18.6297 255.816 25.5921 258.375C28.103 259.294 30.2638 260.084 31.8944 260.823C45.4992 266.92 53.0618 265.441 56.343 264.002C56.8532 263.782 57.4434 264.012 57.6634 264.521C57.8835 265.031 57.6534 265.621 57.1433 265.841C55.2726 266.64 52.7217 267.29 49.3505 267.29Z" fill="#AB6438"/>
<path d="M49.3406 247.147C42.7983 244.438 40.6476 231.785 35.0756 232.255C29.4936 232.735 35.0756 243.699 35.0756 243.699" fill="#EFC298"/>
<path d="M49.3404 248.157C49.2103 248.157 49.0803 248.137 48.9602 248.078C45.529 246.658 43.2582 242.84 41.2575 239.472C39.2968 236.174 37.4362 233.076 35.1654 233.256C34.3451 233.326 34.055 233.665 33.8949 233.955C32.8846 235.764 34.6352 240.612 35.9656 243.25C36.2157 243.74 36.0157 244.34 35.5255 244.589C35.0353 244.839 34.4351 244.639 34.185 244.15C33.7849 243.36 30.2937 236.304 32.1443 232.976C32.5344 232.266 33.3547 231.397 34.9953 231.257C38.5265 230.947 40.6973 234.595 42.9781 238.443C44.9088 241.691 46.9095 245.049 49.7305 246.219C50.2407 246.428 50.4808 247.018 50.2707 247.528C50.1006 247.918 49.7305 248.157 49.3404 248.157Z" fill="#AB6438"/>
<path d="M46.6297 265.978C48.6204 269.366 48.1402 276.292 47.9102 282.129L56.1831 287.776L71.4485 282.718C71.2084 271.744 70.5781 254.124 66.5867 249.746C62.5953 245.369 53.062 248.307 44.9491 246.628C36.8363 244.949 29.1735 241.501 23.7516 238.153C18.3297 234.805 19.05 240.382 22.2411 243.09C25.4322 245.799 28.9335 248.277 32.8348 249.746C32.8348 249.746 19.8503 247.078 12.2776 242.53C4.70492 237.983 1.75387 242.29 4.46483 244.679C7.17579 247.068 18.9699 253.274 26.7727 255.503" fill="#EFC298"/>
<path d="M56.1924 288.776C55.9923 288.776 55.7922 288.716 55.6322 288.606L47.3592 282.959C47.0791 282.769 46.9091 282.44 46.9191 282.09L46.9791 280.641C47.1992 275.343 47.4493 269.347 45.7787 266.488C45.4986 266.009 45.6586 265.399 46.1388 265.119C46.619 264.839 47.2292 264.999 47.5093 265.479C49.48 268.847 49.2299 274.884 48.9898 280.731L48.9498 281.62L56.3624 286.677L70.4574 282.01C70.2773 273.874 69.7471 254.675 65.8658 250.427C63.725 248.088 59.5335 248.138 54.6718 248.208C51.4007 248.248 48.0195 248.298 44.7583 247.619C37.5058 246.119 29.663 242.981 23.2407 239.013C21.5501 237.974 20.8899 238.104 20.8499 238.164C20.5298 238.604 21.12 240.822 22.9006 242.342C26.6619 245.53 29.9331 247.589 33.2043 248.818C33.6944 248.998 33.9545 249.528 33.8145 250.027C33.6644 250.527 33.1642 250.837 32.6541 250.727C32.1139 250.617 19.4094 247.968 11.7767 243.391C7.70526 240.952 5.29441 241.342 4.67419 242.202C4.31406 242.691 4.50413 243.371 5.14435 243.941C7.5552 246.059 19.2193 252.316 27.0721 254.555C27.6023 254.705 27.9124 255.264 27.7623 255.794C27.6123 256.324 27.0521 256.624 26.5219 256.484C18.7592 254.265 6.6949 247.978 3.82389 245.45C2.39338 244.19 2.08327 242.371 3.06362 241.032C4.28405 239.373 7.56521 238.544 12.8071 241.692C16.3883 243.841 21.27 245.58 25.3415 246.789C24.1311 245.93 22.8906 244.96 21.6002 243.871C19.4494 242.042 17.9789 238.713 19.2293 236.994C19.8695 236.115 21.27 235.455 24.2911 237.324C30.5333 241.172 38.136 244.21 45.1685 245.67C48.2195 246.299 51.4807 246.259 54.6418 246.219C59.7536 246.149 64.5953 246.089 67.3363 249.098C71.3077 253.445 72.158 268.527 72.4581 282.719C72.4681 283.159 72.188 283.549 71.7679 283.689L56.5025 288.746C56.4024 288.756 56.2924 288.776 56.1924 288.776Z" fill="#AB6438"/>
<path d="M56.7428 264.907C51.8011 267.056 43.5782 267.146 31.4839 261.719L56.7428 264.907Z" fill="#EFC298"/>
<path d="M49.3505 267.285C44.8389 267.285 38.8568 266.115 31.0741 262.627C30.5739 262.397 30.3438 261.808 30.5739 261.308C30.804 260.808 31.3942 260.578 31.8944 260.808C45.4992 266.905 53.0618 265.426 56.343 263.986C56.8532 263.767 57.4434 263.996 57.6634 264.506C57.8835 265.016 57.6534 265.606 57.1433 265.825C55.2726 266.635 52.7217 267.285 49.3505 267.285Z" fill="#AB6438"/>
<path d="M238.957 136.06C235.956 126.845 229.734 120.648 214.819 111.273C199.904 101.898 165.321 107.935 144.464 100.049C144.464 100.049 153.817 100.039 159.549 99.2596C165.281 98.4801 177.616 97.6905 184.588 97.7805C191.561 97.8604 202.405 98.4801 211.898 102.068C221.381 105.656 228.484 111.013 233.055 116.62C237.637 122.227 239.448 125.765 239.448 125.765C239.448 125.765 239.278 133.391 238.957 136.06Z" fill="#E4B388"/>
<path d="M105.19 256.285C97.4776 244.142 75.2397 247.69 69.3577 252.997C69.3577 252.997 75.0497 245.681 82.7624 242.972C90.4751 240.264 96.9074 243.212 99.8584 245.081C102.809 246.96 105.961 249.869 107.121 251.598C107.121 251.598 105.61 253.946 105.19 256.285Z" fill="#32BEDF"/>
<path d="M6.54525 166.174L13.3777 164.045C13.3777 164.045 12.5774 155.71 21.1004 155.71C29.8835 155.71 28.1129 165.285 26.6023 167.673C25.0918 170.062 19.95 176.269 22.791 185.673L29.4433 183.635C29.4433 183.635 28.463 177.868 29.8835 175.039C31.304 172.201 37.4562 164.975 34.4051 156.869C31.304 148.614 22.5109 147.654 16.1286 149.333C9.74638 151.012 4.24444 156.679 6.54525 166.174Z" fill="#BC003B"/>
<path d="M29.7936 199.113C32.2356 199.113 34.2152 197.135 34.2152 194.695C34.2152 192.255 32.2356 190.277 29.7936 190.277C27.3517 190.277 25.3721 192.255 25.3721 194.695C25.3721 197.135 27.3517 199.113 29.7936 199.113Z" fill="#BC003B"/>
<path d="M285.043 180.954L293.336 184.592C293.336 184.592 299.539 176.356 307.351 181.843C313.403 186.091 309.182 193.497 306.921 195.606C303.82 198.494 290.015 201.603 286.274 212.766L294.617 215.805C294.617 215.805 297.188 210.028 301.039 207.569C304.14 205.59 313.664 204.581 318.045 196.136C322.427 187.69 319.326 178.715 309.912 173.798C300.509 168.87 288.405 171.329 285.043 180.954Z" fill="#BC003B"/>
<path d="M285.954 232.908C289.087 232.908 291.626 230.371 291.626 227.241C291.626 224.111 289.087 221.574 285.954 221.574C282.822 221.574 280.282 224.111 280.282 227.241C280.282 230.371 282.822 232.908 285.954 232.908Z" fill="#BC003B"/>
<path d="M75.0595 281.932C75.0595 281.932 77.5304 318.871 84.923 332.514C92.3256 346.147 93.6361 374.891 89.8548 382.447C86.0734 390.003 62.8852 391.971 49.4105 372.432C35.9257 352.883 40.3673 291.177 42.1779 280.652C42.1779 280.642 58.4537 286.219 75.0595 281.932Z" fill="#23AECF"/>
<path d="M76.9304 389.084C68.1173 389.084 56.5232 384.946 48.3804 373.143C34.7756 353.413 39.0371 291.567 40.9477 280.443C41.0078 280.083 41.2278 279.764 41.538 279.584C41.8581 279.394 42.2382 279.364 42.5783 279.474C42.7384 279.524 58.714 284.871 74.7397 280.733C75.0998 280.633 75.4799 280.713 75.78 280.933C76.0801 281.153 76.2702 281.493 76.3002 281.862C76.3202 282.232 78.8311 318.692 86.0136 331.925C93.7264 346.147 94.7867 375.381 90.9654 383.017C89.3148 386.315 84.6532 388.614 78.8011 389.024C78.2009 389.064 77.5707 389.084 76.9304 389.084ZM43.1985 282.272C41.2379 296.245 37.7466 353.313 50.4511 371.723C58.594 383.527 70.3481 387.105 78.641 386.525C83.5428 386.185 87.5042 384.366 88.7446 381.888C92.3359 374.702 91.0054 346.327 83.8329 333.104C77.1505 320.791 74.4796 290.618 73.9294 283.492C60.3246 286.57 47.42 283.492 43.1985 282.272Z" fill="#007C98"/>
<path d="M86.2635 384.394C86.2635 384.394 72.1185 388.962 59.9042 381.266C47.6899 373.57 45.189 359.218 45.189 359.218C42.6981 348.934 41.5877 333.622 41.2776 326.496C40.9675 319.38 41.4377 307.216 41.7478 299.471C42.0579 291.725 43.1583 282.25 43.1583 282.25L45.079 282.74C43.9786 297.622 47.6199 351.552 54.5723 360.477C61.5248 369.402 69.8077 380.146 72.7887 381.226C75.7698 382.305 82.2921 383.245 90.635 370.012C90.635 370.012 90.3049 378.507 89.1245 381.196C87.9341 383.884 86.2635 384.394 86.2635 384.394Z" fill="#1197BA"/>
<path d="M73.9192 283.508C71.5083 284.167 67.1668 284.517 67.1668 284.517C66.1865 303.947 71.7884 321.697 78.5108 333.241C85.2332 344.774 88.2442 356.438 90.6251 365.493C90.6251 365.493 90.385 356.028 89.0845 349.642C86.1035 334.94 84.0728 334.8 81.6219 328.073C78.0206 318.199 76.4601 305.056 75.6398 298.839C74.7995 292.353 73.9192 283.508 73.9192 283.508Z" fill="#3AC0E5"/>
<path d="M59.0639 293.224C54.4523 293.224 49.8707 292.834 46.5695 292.095C42.5781 291.205 40.4574 289.876 40.1072 288.017C39.9772 287.337 40.4173 286.688 41.0976 286.558C41.7778 286.428 42.428 286.868 42.5581 287.547C42.5681 287.597 42.8282 288.707 47.1097 289.656C56.6931 291.785 72.8988 290.486 74.6394 288.077C75.0496 287.517 75.8298 287.397 76.39 287.797C76.9502 288.197 77.0703 288.987 76.6701 289.546C74.8195 292.075 66.8967 293.224 59.0639 293.224Z" fill="#007C98"/>
</g>
<defs>
<linearGradient id="paint0_linear" x1="102.528" y1="206.768" x2="145.631" y2="163.276" gradientUnits="userSpaceOnUse">
<stop stop-color="white"/>
<stop offset="1" stop-color="white" stop-opacity="0"/>
</linearGradient>
<linearGradient id="paint1_linear" x1="173.528" y1="221.768" x2="216.631" y2="178.276" gradientUnits="userSpaceOnUse">
<stop stop-color="white"/>
<stop offset="1" stop-color="white" stop-opacity="0"/>
</linearGradient>
<clipPath id="clip0">
<rect width="319" height="390" fill="white"/>
</clipPath>
</defs>
</svg>
